<?xml version="1.0" encoding="UTF-8"?>
<svg xmlns="http://www.w3.org/2000/svg" xmlns:xlink="http://www.w3.org/1999/xlink" width="10px" height="px" viewBox="0 0 10 10" version="1.1">
<g id="surface1">
<path style=" stroke:none;fill-rule:evenodd;fill:rgb(0%,0%,0%);fill-opacity:1;" d="M 6.652344 9.371094 L 0.519531 9.371094 C 0.0742188 9.335938 -0.0351562 9.03125 0.0078125 8.679688 C 0.253906 6.601562 2.703125 7.203125 3.6875 6.359375 C 4.179688 7.734375 6.230469 7.785156 6.691406 6.359375 C 6.960938 6.589844 7.5 6.730469 8.042969 6.851562 C 8.070312 6.859375 8.097656 6.863281 8.128906 6.871094 C 7.464844 7.253906 6.945312 7.847656 6.738281 8.542969 C 6.652344 8.828125 6.625 9.105469 6.652344 9.371094 Z M 9.332031 7.222656 L 9.929688 7.660156 C 10.007812 7.71875 10.023438 7.828125 9.964844 7.902344 L 9.808594 8.089844 L 8.917969 7.4375 L 9.074219 7.253906 C 9.136719 7.175781 9.25 7.164062 9.332031 7.222656 Z M 8.683594 9.539062 C 8.480469 9.628906 8.277344 9.71875 8.070312 9.808594 C 7.589844 10.015625 7.605469 10.113281 7.679688 9.636719 L 7.796875 8.890625 L 8.78125 7.605469 L 9.667969 8.253906 L 8.683594 9.542969 Z M 7.949219 9.003906 L 8.53125 9.429688 C 8.398438 9.488281 8.261719 9.546875 8.128906 9.605469 C 7.816406 9.742188 7.824219 9.804688 7.875 9.492188 Z M 3.675781 4.980469 C 3.859375 5.261719 4.054688 5.550781 4.296875 5.761719 C 4.53125 5.964844 4.816406 6.101562 5.1875 6.101562 C 5.59375 6.101562 5.890625 5.960938 6.132812 5.746094 C 6.382812 5.523438 6.578125 5.21875 6.773438 4.914062 L 7.296875 4.09375 C 7.394531 3.878906 7.429688 3.738281 7.40625 3.65625 C 7.394531 3.605469 7.335938 3.582031 7.238281 3.578125 C 7.21875 3.578125 7.195312 3.578125 7.175781 3.578125 C 7.152344 3.578125 7.128906 3.582031 7.101562 3.582031 C 7.085938 3.582031 7.074219 3.582031 7.0625 3.578125 C 7.015625 3.582031 6.96875 3.578125 6.917969 3.570312 L 7.097656 2.816406 C 5.769531 3.015625 4.773438 2.078125 3.367188 2.628906 L 3.46875 3.519531 C 3.414062 3.523438 3.359375 3.519531 3.3125 3.511719 C 2.503906 3.539062 3.515625 4.738281 3.675781 4.980469 Z M 7.417969 3.351562 C 7.546875 3.390625 7.628906 3.46875 7.664062 3.59375 C 7.703125 3.734375 7.660156 3.929688 7.535156 4.195312 C 7.535156 4.203125 7.53125 4.207031 7.527344 4.210938 L 7 5.039062 C 6.796875 5.359375 6.589844 5.679688 6.3125 5.925781 C 6.027344 6.179688 5.671875 6.351562 5.191406 6.347656 C 4.742188 6.347656 4.402344 6.183594 4.125 5.941406 C 3.789062 5.648438 2.238281 3.804688 2.929688 3.359375 C 2.964844 3.339844 3.003906 3.320312 3.042969 3.308594 C 3.011719 2.925781 3.003906 2.445312 3.019531 2.042969 C 3.03125 1.949219 3.050781 1.851562 3.078125 1.757812 C 3.195312 1.355469 3.496094 1.027344 3.863281 0.804688 C 4.066406 0.683594 4.289062 0.589844 4.519531 0.527344 C 4.667969 0.488281 4.394531 0.0390625 4.546875 0.0273438 C 5.285156 -0.046875 6.476562 0.59375 6.992188 1.125 C 7.25 1.386719 7.414062 1.742188 7.449219 2.207031 Z M 7.417969 3.351562 "/>
</g>
</svg>
