<?xml version="1.0" encoding="UTF-8"?>
<svg xmlns="http://www.w3.org/2000/svg" xmlns:xlink="http://www.w3.org/1999/xlink" width="15px" height="17px" viewBox="0 0 15 17" version="1.1">
<g id="surface1">
<path style=" stroke:none;fill-rule:nonzero;fill:#9a9a9a;fill-opacity:1;" d="M 4.957031 9.5625 L 3.617188 9.5625 C 3.394531 9.5625 3.214844 9.382812 3.214844 9.164062 L 3.214844 7.835938 C 3.214844 7.617188 3.394531 7.4375 3.617188 7.4375 L 4.957031 7.4375 C 5.175781 7.4375 5.355469 7.617188 5.355469 7.835938 L 5.355469 9.164062 C 5.355469 9.382812 5.175781 9.5625 4.957031 9.5625 Z M 8.570312 9.164062 L 8.570312 7.835938 C 8.570312 7.617188 8.390625 7.4375 8.167969 7.4375 L 6.832031 7.4375 C 6.609375 7.4375 6.429688 7.617188 6.429688 7.835938 L 6.429688 9.164062 C 6.429688 9.382812 6.609375 9.5625 6.832031 9.5625 L 8.167969 9.5625 C 8.390625 9.5625 8.570312 9.382812 8.570312 9.164062 Z M 11.785156 9.164062 L 11.785156 7.835938 C 11.785156 7.617188 11.605469 7.4375 11.382812 7.4375 L 10.042969 7.4375 C 9.824219 7.4375 9.644531 7.617188 9.644531 7.835938 L 9.644531 9.164062 C 9.644531 9.382812 9.824219 9.5625 10.042969 9.5625 L 11.382812 9.5625 C 11.605469 9.5625 11.785156 9.382812 11.785156 9.164062 Z M 8.570312 12.351562 L 8.570312 11.023438 C 8.570312 10.804688 8.390625 10.625 8.167969 10.625 L 6.832031 10.625 C 6.609375 10.625 6.429688 10.804688 6.429688 11.023438 L 6.429688 12.351562 C 6.429688 12.570312 6.609375 12.75 6.832031 12.75 L 8.167969 12.75 C 8.390625 12.75 8.570312 12.570312 8.570312 12.351562 Z M 5.355469 12.351562 L 5.355469 11.023438 C 5.355469 10.804688 5.175781 10.625 4.957031 10.625 L 3.617188 10.625 C 3.394531 10.625 3.214844 10.804688 3.214844 11.023438 L 3.214844 12.351562 C 3.214844 12.570312 3.394531 12.75 3.617188 12.75 L 4.957031 12.75 C 5.175781 12.75 5.355469 12.570312 5.355469 12.351562 Z M 11.785156 12.351562 L 11.785156 11.023438 C 11.785156 10.804688 11.605469 10.625 11.382812 10.625 L 10.042969 10.625 C 9.824219 10.625 9.644531 10.804688 9.644531 11.023438 L 9.644531 12.351562 C 9.644531 12.570312 9.824219 12.75 10.042969 12.75 L 11.382812 12.75 C 11.605469 12.75 11.785156 12.570312 11.785156 12.351562 Z M 15 3.71875 L 15 15.40625 C 15 16.285156 14.28125 17 13.394531 17 L 1.605469 17 C 0.71875 17 0 16.285156 0 15.40625 L 0 3.71875 C 0 2.839844 0.71875 2.125 1.605469 2.125 L 3.214844 2.125 L 3.214844 0.398438 C 3.214844 0.179688 3.394531 0 3.617188 0 L 4.957031 0 C 5.175781 0 5.355469 0.179688 5.355469 0.398438 L 5.355469 2.125 L 9.644531 2.125 L 9.644531 0.398438 C 9.644531 0.179688 9.824219 0 10.042969 0 L 11.382812 0 C 11.605469 0 11.785156 0.179688 11.785156 0.398438 L 11.785156 2.125 L 13.394531 2.125 C 14.28125 2.125 15 2.839844 15 3.71875 Z M 13.394531 15.207031 L 13.394531 5.3125 L 1.605469 5.3125 L 1.605469 15.207031 C 1.605469 15.316406 1.699219 15.40625 1.808594 15.40625 L 13.191406 15.40625 C 13.300781 15.40625 13.394531 15.316406 13.394531 15.207031 Z M 13.394531 15.207031 "/>
</g>
</svg>
