<?xml version="1.0" encoding="UTF-8"?>
<svg xmlns="http://www.w3.org/2000/svg" xmlns:xlink="http://www.w3.org/1999/xlink" width="18px" height="18px" viewBox="0 0 18 18" version="1.1">
<g id="surface1">
<path style=" stroke:none;fill-rule:nonzero;fill:#597583;fill-opacity:1;" d="M 15.75 0 L 2.25 0 C 1.007812 0 0 1.007812 0 2.25 L 0 12.375 C 0 13.617188 1.007812 14.625 2.25 14.625 L 5.625 14.625 L 5.625 17.578125 C 5.625 17.828125 5.828125 18 6.046875 18 C 6.132812 18 6.21875 17.976562 6.296875 17.914062 L 10.6875 14.625 L 15.75 14.625 C 16.992188 14.625 18 13.617188 18 12.375 L 18 2.25 C 18 1.007812 16.992188 0 15.75 0 Z M 16.3125 12.375 C 16.3125 12.683594 16.058594 12.9375 15.75 12.9375 L 10.125 12.9375 L 9.675781 13.273438 L 7.3125 15.046875 L 7.3125 12.9375 L 2.25 12.9375 C 1.941406 12.9375 1.6875 12.683594 1.6875 12.375 L 1.6875 2.25 C 1.6875 1.941406 1.941406 1.6875 2.25 1.6875 L 15.75 1.6875 C 16.058594 1.6875 16.3125 1.941406 16.3125 2.25 Z M 16.3125 12.375 "/>
</g>
</svg>
