<?xml version="1.0" encoding="UTF-8"?>
<svg xmlns="http://www.w3.org/2000/svg" xmlns:xlink="http://www.w3.org/1999/xlink" width="10px" height="px" viewBox="0 0 10 10" version="1.1">
<g id="surface1">
<path style=" stroke:none;fill-rule:nonzero;fill:rgb(0%,0%,0%);fill-opacity:1;" d="M 6.640625 0.386719 C 6.640625 0.171875 6.851562 0 7.109375 0 C 7.371094 0 7.582031 0.171875 7.582031 0.386719 L 7.582031 2.070312 C 7.582031 2.285156 7.371094 2.457031 7.109375 2.457031 C 6.851562 2.457031 6.640625 2.285156 6.640625 2.070312 Z M 5.378906 8.597656 C 5.316406 8.597656 5.316406 7.777344 5.378906 7.777344 L 6.664062 7.777344 C 6.730469 7.777344 6.730469 8.597656 6.664062 8.597656 Z M 1.289062 5.609375 C 1.226562 5.609375 1.226562 4.789062 1.289062 4.789062 L 2.574219 4.789062 C 2.640625 4.789062 2.640625 5.609375 2.574219 5.609375 Z M 3.335938 5.609375 C 3.269531 5.609375 3.269531 4.789062 3.335938 4.789062 L 4.621094 4.789062 C 4.683594 4.789062 4.683594 5.609375 4.621094 5.609375 Z M 5.378906 5.609375 C 5.316406 5.609375 5.316406 4.789062 5.378906 4.789062 L 6.664062 4.789062 C 6.730469 4.789062 6.730469 5.609375 6.664062 5.609375 Z M 7.425781 4.789062 L 8.707031 4.789062 C 8.773438 4.789062 8.773438 5.609375 8.707031 5.609375 L 7.425781 5.609375 C 7.359375 5.609375 7.359375 4.789062 7.425781 4.789062 Z M 1.289062 7.105469 C 1.226562 7.105469 1.226562 6.28125 1.289062 6.28125 L 2.574219 6.28125 C 2.640625 6.28125 2.640625 7.105469 2.574219 7.105469 Z M 3.335938 7.105469 C 3.273438 7.105469 3.273438 6.28125 3.335938 6.28125 L 4.621094 6.28125 C 4.683594 6.28125 4.683594 7.105469 4.621094 7.105469 Z M 5.382812 7.105469 C 5.316406 7.105469 5.316406 6.28125 5.382812 6.28125 L 6.664062 6.28125 C 6.730469 6.28125 6.730469 7.105469 6.664062 7.105469 Z M 7.425781 7.105469 C 7.363281 7.105469 7.363281 6.28125 7.425781 6.28125 L 8.707031 6.28125 C 8.773438 6.28125 8.773438 7.105469 8.707031 7.105469 Z M 1.292969 8.597656 C 1.226562 8.597656 1.226562 7.777344 1.292969 7.777344 L 2.574219 7.777344 C 2.640625 7.777344 2.640625 8.597656 2.574219 8.597656 Z M 3.335938 8.597656 C 3.273438 8.597656 3.273438 7.777344 3.335938 7.777344 L 4.621094 7.777344 C 4.683594 7.777344 4.683594 8.597656 4.621094 8.597656 Z M 2.410156 0.386719 C 2.410156 0.171875 2.621094 0 2.878906 0 C 3.140625 0 3.347656 0.171875 3.347656 0.386719 L 3.347656 2.070312 C 3.347656 2.285156 3.140625 2.457031 2.878906 2.457031 C 2.621094 2.457031 2.410156 2.285156 2.410156 2.070312 Z M 0.519531 3.539062 L 9.476562 3.539062 L 9.476562 1.746094 C 9.476562 1.683594 9.453125 1.625 9.40625 1.578125 C 9.363281 1.535156 9.304688 1.507812 9.238281 1.507812 L 8.382812 1.507812 C 8.238281 1.507812 8.121094 1.390625 8.121094 1.25 C 8.121094 1.105469 8.238281 0.988281 8.382812 0.988281 L 9.242188 0.988281 C 9.660156 0.988281 10 1.328125 10 1.746094 L 10 9.242188 C 10 9.660156 9.660156 10 9.242188 10 L 0.757812 10 C 0.339844 10 0 9.660156 0 9.238281 L 0 1.746094 C 0 1.328125 0.339844 0.988281 0.757812 0.988281 L 1.675781 0.988281 C 1.820312 0.988281 1.9375 1.105469 1.9375 1.25 C 1.9375 1.390625 1.820312 1.507812 1.675781 1.507812 L 0.757812 1.507812 C 0.695312 1.507812 0.636719 1.535156 0.589844 1.578125 C 0.546875 1.625 0.519531 1.683594 0.519531 1.746094 Z M 9.480469 4.058594 L 0.519531 4.058594 L 0.519531 9.238281 C 0.523438 9.304688 0.546875 9.363281 0.589844 9.410156 C 0.636719 9.453125 0.695312 9.476562 0.757812 9.476562 L 9.242188 9.476562 C 9.304688 9.476562 9.363281 9.453125 9.410156 9.410156 C 9.453125 9.363281 9.480469 9.304688 9.480469 9.238281 Z M 4.105469 1.507812 C 3.960938 1.507812 3.84375 1.390625 3.84375 1.25 C 3.84375 1.105469 3.960938 0.988281 4.105469 0.988281 L 5.851562 0.988281 C 5.996094 0.988281 6.113281 1.105469 6.113281 1.25 C 6.113281 1.390625 5.996094 1.507812 5.851562 1.507812 Z M 4.105469 1.507812 "/>
</g>
</svg>
