<?xml version="1.0" encoding="UTF-8"?>
<svg xmlns="http://www.w3.org/2000/svg" xmlns:xlink="http://www.w3.org/1999/xlink" width="18px" height="18px" viewBox="0 0 18 18" version="1.1">
<g id="surface1">
<path style=" stroke:none;fill-rule:nonzero;fill:rgb(0%,0%,0%);fill-opacity:1;" d="M 8.167969 16.652344 C 8.390625 16.875 8.691406 17 9.007812 17 C 9.320312 17 9.628906 16.875 9.847656 16.652344 L 16.445312 10.058594 C 17.445312 9.054688 17.996094 7.722656 18 6.308594 C 18 4.894531 17.449219 3.558594 16.449219 2.558594 C 15.445312 1.554688 14.117188 1.003906 12.699219 1.003906 C 11.308594 1.003906 10 1.539062 9.003906 2.507812 C 8.003906 1.535156 6.691406 1 5.296875 1 C 3.882812 1 2.554688 1.550781 1.550781 2.546875 C 0.550781 3.550781 0 4.882812 0 6.296875 C 0 7.710938 0.554688 9.042969 1.554688 10.046875 Z M 2.191406 3.1875 C 3.019531 2.355469 4.125 1.898438 5.300781 1.898438 C 6.476562 1.898438 7.582031 2.355469 8.417969 3.191406 L 8.6875 3.460938 C 8.773438 3.546875 8.886719 3.59375 9.007812 3.59375 C 9.125 3.59375 9.242188 3.546875 9.328125 3.460938 L 9.589844 3.195312 C 10.425781 2.363281 11.527344 1.90625 12.707031 1.90625 C 13.882812 1.90625 14.988281 2.363281 15.816406 3.191406 C 16.648438 4.027344 17.105469 5.132812 17.105469 6.304688 C 17.105469 7.480469 16.644531 8.585938 15.8125 9.417969 L 9.210938 16.019531 C 9.105469 16.125 8.910156 16.125 8.800781 16.019531 L 2.195312 9.410156 C 1.363281 8.578125 0.902344 7.472656 0.902344 6.296875 C 0.902344 5.125 1.363281 4.019531 2.191406 3.1875 Z M 2.191406 3.1875 "/>
</g>
</svg>
