<?xml version="1.0" encoding="UTF-8"?>
<svg xmlns="http://www.w3.org/2000/svg" xmlns:xlink="http://www.w3.org/1999/xlink" width="15px" height="17px" viewBox="0 0 15 17" version="1.1">
<g id="surface1">
<path style=" stroke:none;fill-rule:nonzero;fill:rgb(100%,100%,100%);fill-opacity:1;" d="M 10.5 10.09375 C 9.539062 10.09375 9.078125 10.625 7.5 10.625 C 5.921875 10.625 5.464844 10.09375 4.5 10.09375 C 2.015625 10.09375 0 12.09375 0 14.554688 L 0 15.40625 C 0 16.285156 0.71875 17 1.605469 17 L 13.394531 17 C 14.28125 17 15 16.285156 15 15.40625 L 15 14.554688 C 15 12.09375 12.984375 10.09375 10.5 10.09375 Z M 13.394531 15.40625 L 1.605469 15.40625 L 1.605469 14.554688 C 1.605469 12.976562 2.90625 11.6875 4.5 11.6875 C 4.988281 11.6875 5.78125 12.21875 7.5 12.21875 C 9.230469 12.21875 10.007812 11.6875 10.5 11.6875 C 12.09375 11.6875 13.394531 12.976562 13.394531 14.554688 Z M 7.5 9.5625 C 10.160156 9.5625 12.320312 7.421875 12.320312 4.78125 C 12.320312 2.140625 10.160156 0 7.5 0 C 4.839844 0 2.679688 2.140625 2.679688 4.78125 C 2.679688 7.421875 4.839844 9.5625 7.5 9.5625 Z M 7.5 1.59375 C 9.269531 1.59375 10.714844 3.023438 10.714844 4.78125 C 10.714844 6.539062 9.269531 7.96875 7.5 7.96875 C 5.730469 7.96875 4.285156 6.539062 4.285156 4.78125 C 4.285156 3.023438 5.730469 1.59375 7.5 1.59375 Z M 7.5 1.59375 "/>
</g>
</svg>
